<svg xmlns="http://www.w3.org/2000/svg" version="1.1" xmlns:xlink="http://www.w3.org/1999/xlink" xmlnsSvgjs="http://svgjs.dev/svgjs" width="2000" height="494" viewBox="0 0 2000 494"><g transform="matrix(1,0,0,1,-1.2110769462765347,-0.13747873737520422)"><svg viewBox="0 0 396 98" data-background-color="#efefef" preserveAspectRatio="xMidYMid meet" height="494" width="2000" xmlns="http://www.w3.org/2000/svg" xmlns:xlink="http://www.w3.org/1999/xlink"><g id="tight-bounds" transform="matrix(1,0,0,1,0.23979323536275388,0.02727310984366227)"><svg viewBox="0 0 395.52 97.94545378031268" height="97.94545378031268" width="395.52"><g><svg viewBox="0 0 459.0959133712351 113.68921309625996" height="97.94545378031268" width="395.52"><g transform="matrix(1,0,0,1,102.9753933712351,0)"><svg viewBox="0 0 356.12052 113.68921309625996" height="113.68921309625996" width="356.12052"><g><path d="M0 113.689v-113.689h356.121v113.689z" fill="#000000" stroke="transparent" stroke-width="0" rx="0%" data-fill-palette-color="tertiary"></path><path d="M3.283 110.406v-107.123h349.554v107.123z" fill="#efefef" stroke="transparent" stroke-width="0" rx="0%" data-fill-palette-color="quaternary"></path><path d="M9.85 103.839v-93.989h336.421v93.989z" fill="#000000" stroke="transparent" stroke-width="0" data-fill-palette-color="tertiary"></path></g><g transform="matrix(1,0,0,1,19.69974,19.69974)" id="textblocktransform"><svg viewBox="0 0 316.72104 74.28973309625997" height="74.28973309625997" width="316.72104" id="textblock"><g><svg viewBox="0 0 316.72104 43.692356836296746" height="43.692356836296746" width="316.72104"><g transform="matrix(1,0,0,1,0,0)"><svg width="316.72104" viewBox="2.3 -35.35 326.17 45" height="43.692356836296746" data-palette-color="#efefef"><path d="M30.7-3.1L30.75-2.75Q26.4 0.4 19.85 0.4L19.85 0.4Q11.95 0.4 7.13-4.25 2.3-8.9 2.3-16.9L2.3-16.9Q2.3-24.65 7.18-29.48 12.05-34.3 19.55-34.3L19.55-34.3Q25.4-34.3 29.35-32.05L29.35-32.05 29.35-26.75Q25.05-29.45 19.75-29.45L19.75-29.45Q14.35-29.45 11.03-26 7.7-22.55 7.7-16.9L7.7-16.9Q7.7-11.1 10.98-7.75 14.25-4.4 20-4.4L20-4.4Q23-4.4 25.7-5.5L25.7-5.5 25.7-14.8 18.85-14.8 18.85-19.25 30.75-19.25 30.75-3.1 30.7-3.1ZM45.7-3.65L45.7-3.65Q48.1-3.65 49.47-4.98 50.85-6.3 50.85-8.45L50.85-8.45 50.85-11.3 47.05-11.3Q44.25-11.3 42.82-10.2 41.4-9.1 41.4-7.4L41.4-7.4Q41.4-5.65 42.5-4.65 43.6-3.65 45.7-3.65ZM51 0L51-3Q49.05 0.2 44.15 0.2L44.15 0.2Q40.55 0.2 38.37-1.88 36.2-3.95 36.2-7.15L36.2-7.15Q36.2-10.8 38.95-12.83 41.7-14.85 46.65-14.85L46.65-14.85 50.85-14.85 50.85-16.3Q50.85-18.9 49.6-20.23 48.35-21.55 45.45-21.55L45.45-21.55Q41.4-21.55 38.1-19.3L38.1-19.3 38.1-24.05Q41.05-25.75 45.9-25.75L45.9-25.75Q55.85-25.75 55.85-16.1L55.85-16.1 55.85 0 51 0ZM83.4-17.15L83.4 0 78.5 0 78.5-16Q78.5-18.65 77.17-20.05 75.85-21.45 73.65-21.45L73.65-21.45Q71.05-21.45 69.2-19.43 67.35-17.4 67.35-13.75L67.35-13.75 67.35 0 62.45 0 62.45-25.35 67.35-25.35 67.35-21Q69.6-25.7 75.25-25.7L75.25-25.7Q79-25.7 81.2-23.4 83.4-21.1 83.4-17.15L83.4-17.15ZM111.34-25.35L111.34-2.15Q111.34 3.7 108.02 6.68 104.69 9.65 99.49 9.65L99.49 9.65Q94.59 9.65 91.24 8L91.24 8 91.24 3.05Q94.44 5.15 98.99 5.15L98.99 5.15Q106.44 5.15 106.44-2.2L106.44-2.2 106.44-4.8Q103.99-0.7 99.09-0.7L99.09-0.7Q94.79-0.7 91.74-3.88 88.69-7.05 88.69-12.85L88.69-12.85Q88.69-18.45 91.54-22.08 94.39-25.7 99.09-25.7L99.09-25.7Q104.14-25.7 106.44-21.4L106.44-21.4 106.44-25.35 111.34-25.35ZM93.84-12.95L93.84-12.95Q93.84-9 95.67-6.95 97.49-4.9 99.99-4.9L99.99-4.9Q102.59-4.9 104.52-6.93 106.44-8.95 106.44-12.6L106.44-12.6Q106.44-17.1 104.62-19.25 102.79-21.4 100.19-21.4L100.19-21.4Q97.24-21.4 95.54-19.07 93.84-16.75 93.84-12.95ZM126.14-3.65L126.14-3.65Q128.54-3.65 129.92-4.98 131.29-6.3 131.29-8.45L131.29-8.45 131.29-11.3 127.49-11.3Q124.69-11.3 123.27-10.2 121.84-9.1 121.84-7.4L121.84-7.4Q121.84-5.65 122.94-4.65 124.04-3.65 126.14-3.65ZM131.44 0L131.44-3Q129.49 0.2 124.59 0.2L124.59 0.2Q120.99 0.2 118.82-1.88 116.64-3.95 116.64-7.15L116.64-7.15Q116.64-10.8 119.39-12.83 122.14-14.85 127.09-14.85L127.09-14.85 131.29-14.85 131.29-16.3Q131.29-18.9 130.04-20.23 128.79-21.55 125.89-21.55L125.89-21.55Q121.84-21.55 118.54-19.3L118.54-19.3 118.54-24.05Q121.49-25.75 126.34-25.75L126.34-25.75Q136.29-25.75 136.29-16.1L136.29-16.1 136.29 0 131.44 0ZM175.64-33.7L175.64-29.4 166.79-29.4 166.79 0 161.64 0 161.64-29.4 152.84-29.4 152.84-33.7 175.64-33.7ZM199.08-5.75L199.08-1.35Q196.28 0.25 191.68 0.25L191.68 0.25Q185.78 0.25 182.28-3.3 178.78-6.85 178.78-12.6L178.78-12.6Q178.78-18.7 181.98-22.18 185.18-25.65 190.13-25.65L190.13-25.65Q194.98-25.65 197.83-22.63 200.68-19.6 200.68-13.9L200.68-13.9Q200.68-12.35 200.38-10.65L200.38-10.65 183.73-10.65Q184.23-7.35 186.53-5.6 188.83-3.85 192.33-3.85L192.33-3.85Q196.38-3.85 199.08-5.75L199.08-5.75ZM190.23-21.6L190.23-21.6Q187.73-21.6 185.93-19.78 184.13-17.95 183.68-14.5L183.68-14.5 195.93-14.5 195.93-15.4Q195.83-18.25 194.38-19.93 192.93-21.6 190.23-21.6ZM224.33-5.4L224.33-1Q221.88 0.5 218.08 0.5L218.08 0.5Q212.13 0.5 208.58-3.25 205.03-7 205.03-12.6L205.03-12.6Q205.03-18.05 208.61-21.93 212.18-25.8 218.28-25.8L218.28-25.8Q221.58-25.8 224.33-24.4L224.33-24.4 224.33-19.9Q221.88-21.45 218.78-21.45L218.78-21.45Q214.83-21.45 212.46-18.95 210.08-16.45 210.08-12.55L210.08-12.55Q210.18-8.7 212.43-6.23 214.68-3.75 218.73-3.75L218.73-3.75Q221.73-3.75 224.33-5.4L224.33-5.4ZM250.93-17L250.93 0 246.03 0 246.03-16Q246.03-18.6 244.7-20.03 243.38-21.45 241.23-21.45L241.23-21.45Q238.73-21.45 236.8-19.55 234.88-17.65 234.88-13.75L234.88-13.75 234.88 0 229.98 0 229.98-35.35 234.88-35.35 234.88-21Q237.03-25.7 242.73-25.7L242.73-25.7Q246.43-25.7 248.68-23.4 250.93-21.1 250.93-17L250.93-17ZM275.52-33.7L275.52 0 270.42 0 270.42-33.7 275.52-33.7ZM303.97-17.15L303.97 0 299.07 0 299.07-16Q299.07-18.65 297.75-20.05 296.42-21.45 294.22-21.45L294.22-21.45Q291.62-21.45 289.77-19.43 287.92-17.4 287.92-13.75L287.92-13.75 287.92 0 283.02 0 283.02-25.35 287.92-25.35 287.92-21Q290.17-25.7 295.82-25.7L295.82-25.7Q299.57-25.7 301.77-23.4 303.97-21.1 303.97-17.15L303.97-17.15ZM328.47-5.4L328.47-1Q326.02 0.5 322.22 0.5L322.22 0.5Q316.27 0.5 312.72-3.25 309.17-7 309.17-12.6L309.17-12.6Q309.17-18.05 312.74-21.93 316.32-25.8 322.42-25.8L322.42-25.8Q325.72-25.8 328.47-24.4L328.47-24.4 328.47-19.9Q326.02-21.45 322.92-21.45L322.92-21.45Q318.97-21.45 316.59-18.95 314.22-16.45 314.22-12.55L314.22-12.55Q314.32-8.7 316.57-6.23 318.82-3.75 322.87-3.75L322.87-3.75Q325.87-3.75 328.47-5.4L328.47-5.4Z" opacity="1" transform="matrix(1,0,0,1,0,0)" fill="#efefef" class="wordmark-text-0" data-fill-palette-color="quaternary" id="text-0"></path></svg></g></svg></g><g transform="matrix(1,0,0,1,0,50.25893683629675)"><svg viewBox="0 0 316.72104 24.03079625996321" height="24.03079625996321" width="316.72104"><g transform="matrix(1,0,0,1,0,0)"><svg width="316.72104" viewBox="5.7 -37.1 620.1099999999999 47.05" height="24.03079625996321" data-palette-color="#efefef"><path d="M27.75-18.05Q31.2-17.3 33.08-15.08 34.95-12.85 34.95-9.35L34.95-9.35Q34.95-4.85 31.63-2.43 28.3 0 21.8 0L21.8 0 5.7 0 5.7-35 20.8-35Q26.65-35 29.88-32.65 33.1-30.3 33.1-26L33.1-26Q33.1-23.1 31.68-21.08 30.25-19.05 27.75-18.05L27.75-18.05ZM20.55-31.95L9.4-31.95 9.4-19.25 20.55-19.25Q24.8-19.25 27.1-20.88 29.4-22.5 29.4-25.6L29.4-25.6Q29.4-28.7 27.1-30.33 24.8-31.95 20.55-31.95L20.55-31.95ZM21.75-3.05Q26.45-3.05 28.85-4.65 31.25-6.25 31.25-9.65L31.25-9.65Q31.25-16.2 21.75-16.2L21.75-16.2 9.4-16.2 9.4-3.05 21.75-3.05ZM76.89-26.3L80.44-26.3 80.44 0 77.04 0 77.04-4.8Q75.64-2.4 73.19-1.07 70.74 0.25 67.59 0.25L67.59 0.25Q62.44 0.25 59.46-2.63 56.49-5.5 56.49-11.05L56.49-11.05 56.49-26.3 60.04-26.3 60.04-11.4Q60.04-7.25 62.09-5.1 64.14-2.95 67.94-2.95L67.94-2.95Q72.09-2.95 74.49-5.48 76.89-8 76.89-12.5L76.89-12.5 76.89-26.3ZM104.47 0L104.47-26.3 108.02-26.3 108.02 0 104.47 0ZM106.27-32.05Q105.17-32.05 104.42-32.8 103.67-33.55 103.67-34.6L103.67-34.6Q103.67-35.6 104.42-36.35 105.17-37.1 106.27-37.1L106.27-37.1Q107.37-37.1 108.12-36.38 108.87-35.65 108.87-34.65L108.87-34.65Q108.87-33.55 108.12-32.8 107.37-32.05 106.27-32.05L106.27-32.05ZM132.01 0L132.01-37.1 135.56-37.1 135.56 0 132.01 0ZM180-37.1L183.55-37.1 183.55 0 180.15 0 180.15-5.2Q178.55-2.55 175.92-1.15 173.3 0.25 170 0.25L170 0.25Q166.3 0.25 163.3-1.45 160.3-3.15 158.6-6.2 156.9-9.25 156.9-13.15L156.9-13.15Q156.9-17.05 158.6-20.1 160.3-23.15 163.3-24.83 166.3-26.5 170-26.5L170-26.5Q173.2-26.5 175.77-25.18 178.35-23.85 180-21.3L180-21.3 180-37.1ZM170.3-2.9Q173.05-2.9 175.27-4.17 177.5-5.45 178.77-7.8 180.05-10.15 180.05-13.15L180.05-13.15Q180.05-16.15 178.77-18.5 177.5-20.85 175.27-22.13 173.05-23.4 170.3-23.4L170.3-23.4Q167.5-23.4 165.27-22.13 163.05-20.85 161.77-18.5 160.5-16.15 160.5-13.15L160.5-13.15Q160.5-10.15 161.77-7.8 163.05-5.45 165.27-4.17 167.5-2.9 170.3-2.9L170.3-2.9ZM207.54 0L207.54-26.3 211.09-26.3 211.09 0 207.54 0ZM209.34-32.05Q208.24-32.05 207.49-32.8 206.74-33.55 206.74-34.6L206.74-34.6Q206.74-35.6 207.49-36.35 208.24-37.1 209.34-37.1L209.34-37.1Q210.44-37.1 211.19-36.38 211.94-35.65 211.94-34.65L211.94-34.65Q211.94-33.55 211.19-32.8 210.44-32.05 209.34-32.05L209.34-32.05ZM248.47-26.5Q253.42-26.5 256.35-23.63 259.27-20.75 259.27-15.25L259.27-15.25 259.27 0 255.72 0 255.72-14.9Q255.72-19 253.67-21.15 251.62-23.3 247.82-23.3L247.82-23.3Q243.57-23.3 241.1-20.78 238.62-18.25 238.62-13.8L238.62-13.8 238.62 0 235.07 0 235.07-26.3 238.47-26.3 238.47-21.45Q239.92-23.85 242.5-25.18 245.07-26.5 248.47-26.5L248.47-26.5ZM304.06-26.3L307.46-26.3 307.46-3.2Q307.46 3.5 304.19 6.73 300.91 9.95 294.31 9.95L294.31 9.95Q290.66 9.95 287.39 8.88 284.11 7.8 282.06 5.9L282.06 5.9 283.86 3.2Q285.76 4.9 288.49 5.85 291.21 6.8 294.21 6.8L294.21 6.8Q299.21 6.8 301.56 4.48 303.91 2.15 303.91-2.75L303.91-2.75 303.91-6.1Q302.26-3.6 299.59-2.3 296.91-1 293.66-1L293.66-1Q289.96-1 286.94-2.63 283.91-4.25 282.19-7.18 280.46-10.1 280.46-13.8L280.46-13.8Q280.46-17.5 282.19-20.4 283.91-23.3 286.91-24.9 289.91-26.5 293.66-26.5L293.66-26.5Q297.01-26.5 299.71-25.15 302.41-23.8 304.06-21.25L304.06-21.25 304.06-26.3ZM294.01-4.15Q296.86-4.15 299.16-5.38 301.46-6.6 302.74-8.8 304.01-11 304.01-13.8L304.01-13.8Q304.01-16.6 302.74-18.78 301.46-20.95 299.19-22.18 296.91-23.4 294.01-23.4L294.01-23.4Q291.16-23.4 288.89-22.2 286.61-21 285.34-18.8 284.06-16.6 284.06-13.8L284.06-13.8Q284.06-11 285.34-8.8 286.61-6.6 288.89-5.38 291.16-4.15 294.01-4.15L294.01-4.15ZM374.64 0.3Q369.44 0.3 365.26-2 361.09-4.3 358.71-8.38 356.34-12.45 356.34-17.5L356.34-17.5Q356.34-22.55 358.71-26.63 361.09-30.7 365.29-33 369.49-35.3 374.69-35.3L374.69-35.3Q378.59-35.3 381.89-34 385.19-32.7 387.49-30.2L387.49-30.2 385.14-27.85Q381.04-32 374.79-32L374.79-32Q370.64-32 367.24-30.1 363.84-28.2 361.91-24.9 359.99-21.6 359.99-17.5L359.99-17.5Q359.99-13.4 361.91-10.1 363.84-6.8 367.24-4.9 370.64-3 374.79-3L374.79-3Q381.09-3 385.14-7.2L385.14-7.2 387.49-4.85Q385.19-2.35 381.86-1.03 378.54 0.3 374.64 0.3L374.64 0.3ZM417.52-26.5Q422.67-26.5 425.42-23.93 428.17-21.35 428.17-16.3L428.17-16.3 428.17 0 424.77 0 424.77-4.1Q423.57-2.05 421.25-0.9 418.92 0.25 415.72 0.25L415.72 0.25Q411.32 0.25 408.72-1.85 406.12-3.95 406.12-7.4L406.12-7.4Q406.12-10.75 408.55-12.8 410.97-14.85 416.27-14.85L416.27-14.85 424.62-14.85 424.62-16.45Q424.62-19.85 422.72-21.63 420.82-23.4 417.17-23.4L417.17-23.4Q414.67-23.4 412.37-22.58 410.07-21.75 408.42-20.3L408.42-20.3 406.82-22.95Q408.82-24.65 411.62-25.58 414.42-26.5 417.52-26.5L417.52-26.5ZM416.27-2.55Q419.27-2.55 421.42-3.93 423.57-5.3 424.62-7.9L424.62-7.9 424.62-12.2 416.37-12.2Q409.62-12.2 409.62-7.5L409.62-7.5Q409.62-5.2 411.37-3.88 413.12-2.55 416.27-2.55L416.27-2.55ZM455.31-21.15Q456.56-23.8 459.04-25.15 461.51-26.5 465.16-26.5L465.16-26.5 465.16-23.05 464.31-23.1Q460.16-23.1 457.81-20.55 455.46-18 455.46-13.4L455.46-13.4 455.46 0 451.91 0 451.91-26.3 455.31-26.3 455.31-21.15ZM508.35-13.15L508.3-12.05 486.3-12.05Q486.6-7.95 489.45-5.43 492.3-2.9 496.65-2.9L496.65-2.9Q499.1-2.9 501.15-3.78 503.2-4.65 504.7-6.35L504.7-6.35 506.7-4.05Q504.95-1.95 502.32-0.85 499.7 0.25 496.55 0.25L496.55 0.25Q492.5 0.25 489.37-1.48 486.25-3.2 484.5-6.25 482.75-9.3 482.75-13.15L482.75-13.15Q482.75-17 484.42-20.05 486.1-23.1 489.02-24.8 491.95-26.5 495.6-26.5L495.6-26.5Q499.25-26.5 502.15-24.8 505.05-23.1 506.7-20.08 508.35-17.05 508.35-13.15L508.35-13.15ZM495.6-23.45Q491.8-23.45 489.22-21.03 486.65-18.6 486.3-14.7L486.3-14.7 504.95-14.7Q504.6-18.6 502.02-21.03 499.45-23.45 495.6-23.45L495.6-23.45ZM552.63-13.15L552.58-12.05 530.58-12.05Q530.88-7.95 533.73-5.43 536.58-2.9 540.93-2.9L540.93-2.9Q543.38-2.9 545.43-3.78 547.48-4.65 548.98-6.35L548.98-6.35 550.98-4.05Q549.23-1.95 546.61-0.85 543.98 0.25 540.83 0.25L540.83 0.25Q536.78 0.25 533.66-1.48 530.53-3.2 528.78-6.25 527.03-9.3 527.03-13.15L527.03-13.15Q527.03-17 528.71-20.05 530.38-23.1 533.31-24.8 536.23-26.5 539.88-26.5L539.88-26.5Q543.53-26.5 546.43-24.8 549.33-23.1 550.98-20.08 552.63-17.05 552.63-13.15L552.63-13.15ZM539.88-23.45Q536.08-23.45 533.51-21.03 530.93-18.6 530.58-14.7L530.58-14.7 549.23-14.7Q548.88-18.6 546.31-21.03 543.73-23.45 539.88-23.45L539.88-23.45ZM577.37-21.15Q578.62-23.8 581.1-25.15 583.57-26.5 587.22-26.5L587.22-26.5 587.22-23.05 586.37-23.1Q582.22-23.1 579.87-20.55 577.52-18 577.52-13.4L577.52-13.4 577.52 0 573.97 0 573.97-26.3 577.37-26.3 577.37-21.15ZM614.96 0.25Q611.76 0.25 608.83-0.68 605.91-1.6 604.26-3L604.26-3 605.86-5.8Q607.51-4.5 610.01-3.68 612.51-2.85 615.21-2.85L615.21-2.85Q618.81-2.85 620.53-3.98 622.26-5.1 622.26-7.15L622.26-7.15Q622.26-8.6 621.31-9.43 620.36-10.25 618.91-10.68 617.46-11.1 615.06-11.5L615.06-11.5Q611.86-12.1 609.91-12.73 607.96-13.35 606.58-14.85 605.21-16.35 605.21-19L605.21-19Q605.21-22.3 607.96-24.4 610.71-26.5 615.61-26.5L615.61-26.5Q618.16-26.5 620.71-25.83 623.26-25.15 624.91-24.05L624.91-24.05 623.36-21.2Q620.11-23.45 615.61-23.45L615.61-23.45Q612.21-23.45 610.48-22.25 608.76-21.05 608.76-19.1L608.76-19.1Q608.76-17.6 609.73-16.7 610.71-15.8 612.16-15.38 613.61-14.95 616.16-14.5L616.16-14.5Q619.31-13.9 621.21-13.3 623.11-12.7 624.46-11.25 625.81-9.8 625.81-7.25L625.81-7.25Q625.81-3.8 622.93-1.78 620.06 0.25 614.96 0.25L614.96 0.25Z" opacity="1" transform="matrix(1,0,0,1,0,0)" fill="#efefef" class="slogan-text-1" data-fill-palette-color="quaternary" id="text-1"></path></svg></g></svg></g></svg></g></svg></g><g transform="matrix(1,0,0,1,0,8.590453312785286)"><svg viewBox="0 0 96.4088133712351 96.50830647068939" height="96.50830647068939" width="96.4088133712351"><g><svg xmlns="http://www.w3.org/2000/svg" xmlns:xlink="http://www.w3.org/1999/xlink" version="1.1" x="0" y="0" viewBox="1.5000000000000036 1.4000000000000021 96.9 96.99999999999999" enable-background="new 0 0 100 100" xml:space="preserve" height="96.50830647068939" width="96.4088133712351" class="icon-icon-0" data-fill-palette-color="accent" id="icon-0"><path d="M42.7 53.1h-3.3c-0.3-1-0.5-2-0.5-3.1 0-1.1 0.2-2.1 0.5-3.1h3.3c-0.2 1-0.3 2-0.3 3.1S42.6 52.2 42.7 53.1zM40.3 55.4c1.2 2.1 3 3.8 5.3 4.8-0.9-1.3-1.8-2.8-2.4-4.8H40.3zM48.9 60.6v-5.2h-3.3C46.5 57.8 47.8 59.5 48.9 60.6zM45.6 39.9c-2.2 1-4.1 2.7-5.3 4.8h2.9C43.8 42.7 44.7 41.1 45.6 39.9zM54.4 60.1c2.2-1 4.1-2.7 5.3-4.8h-2.9C56.2 57.3 55.3 58.9 54.4 60.1zM57.5 50c0 1.1-0.1 2.2-0.3 3.1h3.3c0.3-1 0.5-2 0.5-3.1 0-1.1-0.2-2.1-0.5-3.1h-3.3C57.4 47.8 57.5 48.9 57.5 50zM51.1 55.4v5.2c1.1-1.1 2.4-2.8 3.3-5.2H51.1zM44.7 50c0 1.1 0.1 2.2 0.3 3.1h3.9v-6.3H45C44.8 47.8 44.7 48.9 44.7 50zM55.3 50c0-1.1-0.1-2.2-0.3-3.1h-3.9v6.3H55C55.2 52.2 55.3 51.1 55.3 50zM98.4 50c0 5.1-4.1 9.2-9.2 9.2-4 0-7.4-2.6-8.7-6.2h-12c-0.5 2.9-1.6 5.6-3.3 7.9l8.5 8.5c3.4-1.6 7.6-1 10.4 1.8 3.6 3.6 3.6 9.4 0 13-3.6 3.6-9.4 3.6-13 0-2.8-2.8-3.4-7.1-1.8-10.5L61 65.3c-2.3 1.7-5 2.8-7.9 3.3v12c3.5 1.3 6.1 4.7 6.1 8.6 0 5.1-4.1 9.2-9.2 9.2s-9.2-4.1-9.2-9.2c0-4 2.6-7.4 6.2-8.7v-12c-3-0.5-5.7-1.6-8-3.3l-8.5 8.5c1.7 3.4 1.1 7.7-1.8 10.5-3.6 3.6-9.4 3.6-13 0-3.6-3.6-3.6-9.4 0-13 2.8-2.8 7-3.4 10.4-1.8l8.5-8.5c-1.6-2.3-2.8-5-3.2-7.9h-12c-1.2 3.6-4.7 6.2-8.7 6.2-5.1 0-9.2-4.1-9.2-9.2 0-5.1 4.1-9.2 9.2-9.2 4 0 7.4 2.5 8.6 6.1h12.1c0.5-2.9 1.6-5.6 3.3-7.9l-8.5-8.5c-3.4 1.7-7.7 1.1-10.5-1.8-3.6-3.6-3.6-9.4 0-13 3.6-3.6 9.4-3.6 13 0 2.8 2.8 3.4 7 1.8 10.4l8.5 8.5c2.3-1.7 5-2.8 7.9-3.3v-12c-3.6-1.2-6.2-4.7-6.2-8.7 0-5.1 4.1-9.2 9.2-9.2s9.2 4.1 9.2 9.2c0 4-2.5 7.4-6.1 8.6v12c2.9 0.5 5.5 1.6 7.8 3.2l8.5-8.5c-1.6-3.4-1-7.6 1.8-10.4 3.6-3.6 9.4-3.6 13 0 3.6 3.6 3.6 9.4 0 13-2.8 2.8-7.1 3.4-10.5 1.8L65.3 39c1.7 2.3 2.8 5 3.3 7.9h12c1.3-3.5 4.7-6.1 8.6-6.1C94.3 40.8 98.4 44.9 98.4 50zM75.4 24.6c1.3 1.3 3.4 1.3 4.7 0 1.3-1.3 1.3-3.4 0-4.7s-3.4-1.3-4.7 0C74.1 21.2 74.1 23.3 75.4 24.6zM24.6 19.9c-1.3-1.3-3.4-1.3-4.7 0-1.3 1.3-1.3 3.4 0 4.7 1.3 1.3 3.4 1.3 4.7 0C25.9 23.3 25.9 21.2 24.6 19.9zM14.1 50c0-1.8-1.5-3.3-3.3-3.3-1.8 0-3.3 1.5-3.3 3.3s1.5 3.3 3.3 3.3C12.6 53.3 14.1 51.8 14.1 50zM24.6 75.4c-1.3-1.3-3.4-1.3-4.7 0-1.3 1.3-1.3 3.4 0 4.7 1.3 1.3 3.4 1.3 4.7 0C25.9 78.8 25.9 76.7 24.6 75.4zM50 14.1c1.8 0 3.3-1.5 3.3-3.3 0-1.8-1.5-3.3-3.3-3.3s-3.3 1.5-3.3 3.3C46.7 12.6 48.2 14.1 50 14.1zM50 85.9c-1.8 0-3.3 1.5-3.3 3.3 0 1.8 1.5 3.3 3.3 3.3s3.3-1.5 3.3-3.3C53.3 87.4 51.8 85.9 50 85.9zM63.5 50c0-7.5-6.1-13.5-13.5-13.5-7.5 0-13.5 6.1-13.5 13.5S42.5 63.5 50 63.5C57.5 63.5 63.5 57.5 63.5 50zM75.4 80.1c1.3 1.3 3.4 1.3 4.7 0 1.3-1.3 1.3-3.4 0-4.7-1.3-1.3-3.4-1.3-4.7 0C74.1 76.7 74.1 78.8 75.4 80.1zM92.6 50c0-1.8-1.5-3.3-3.3-3.3s-3.3 1.5-3.3 3.3c0 1.8 1.5 3.3 3.3 3.3S92.6 51.8 92.6 50zM54.4 39.9c0.9 1.3 1.8 2.8 2.4 4.8h2.9C58.5 42.5 56.6 40.8 54.4 39.9zM48.9 44.6v-5.2c-1.1 1.1-2.4 2.8-3.3 5.2H48.9zM51.1 39.4v5.2h3.3C53.5 42.2 52.2 40.5 51.1 39.4z" fill="#000000" data-fill-palette-color="accent"></path></svg></g></svg></g></svg></g><defs></defs></svg><rect width="395.52" height="97.94545378031268" fill="none" stroke="none" visibility="hidden"></rect></g></svg></g></svg>